# xmcd
#
# Track frame offsets:
#	150
#	16722
#	31653
#	46709
#	65675
#	80872
#	93351
#	108578
#	123951
#	139515
#	155017
#	168587
#	184563
#	200357
#	217342
#
# Disc length: 3126 seconds
#
# Revision: 1
# Processed by: cddbd v1.5.2PL0 Copyright (c) Steve Scherf et al.
# Submitted via: audiograbber 1.83.01
#
DISCID=c90c340f
DTITLE=Various Artist - Classic Country Golden 80´s Cd2
DYEAR=1900
DGENRE=Country
TTITLE0=Barbara Mandrell - I Was Country When Country Wasn´t Cool
TTITLE1=Alabama - Love In The First Degree
TTITLE2=George Strait - All My Ex´s Live In Texas
TTITLE3=Ronnie Milsap - Stranger In My House
TTITLE4=Sylvia Allen - Nobody
TTITLE5=Larry Gatlin - Take Me To Your Lovin´ Place
TTITLE6=George Jones - Shine All Your Sweet Love On Me
TTITLE7=Juice Newton - Queen Of Hearts
TTITLE8=B.j. Thomas - Whatever Happened To Old Fashioned Love
TTITLE9=Oak Ridge Boys - Little Things
TTITLE10=Ricky Skaggs - Crying My Heart Over You
TTITLE11=Jerry Reed - Down On The Corner
TTITLE12=Rosanne Cash - Never Be You
TTITLE13=Mac Davies - Hooked On Music
TTITLE14=Dolly Parton and Jordanairs - Save The Last Dance For Me
EXTD=
EXTT0=
EXTT1=
EXTT2=
EXTT3=
EXTT4=
EXTT5=
EXTT6=
EXTT7=
EXTT8=
EXTT9=
EXTT10=
EXTT11=
EXTT12=
EXTT13=
EXTT14=
PLAYORDER=
